<svg width="14" height="17" viewBox="0 0 14 17" fill="none" xmlns="http://www.w3.org/2000/svg"><path d="M7.19 16.967a.568.568 0 0 1-.38 0C-.17 14.497-.063 8.65.017 4.377c.008-.46.016-.893.016-1.312a.59.59 0 0 1 .584-.595c2.494 0 4.392-.732 5.975-2.302a.574.574 0 0 1 .813 0c1.583 1.57 3.482 2.302 5.977 2.302a.59.59 0 0 1 .583.595c0 .42.008.853.017 1.312.08 4.27.19 10.12-6.792 12.59zM12.817 4.4c-.005-.258-.01-.508-.012-.752C10.467 3.548 8.6 2.825 7 1.403 5.4 2.825 3.533 3.547 1.197 3.648l-.013.752c-.08 4.294-.17 9.155 5.816 11.374 5.987-2.22 5.897-7.08 5.816-11.374zM9.833 6.433a.604.604 0 0 1 0 .842l-3.227 3.292a.573.573 0 0 1-.825 0L4.168 8.92a.603.603 0 0 1 .189-.97.575.575 0 0 1 .636.128l1.2 1.226L9.01 6.432a.575.575 0 0 1 .825 0z" fill="#787878"/></svg>