<svg width="86" height="64" viewBox="0 0 86 64" fill="none" xmlns="http://www.w3.org/2000/svg"><path d="M79.622 20.272c0 2.064-.306 4.08-.896 5.998h5.142c1.177 0 2.132.957 2.132 2.136 0 1.18-.955 2.135-2.132 2.135H77.47c-.202 0-.397-.027-.582-.08a20.375 20.375 0 0 1-3.196 4.146l-28.72 28.768a2.13 2.13 0 0 1-3.017 0L13.233 34.606a20.264 20.264 0 0 1-2.747-3.42c-.17.044-.35.068-.536.068H2.132A2.134 2.134 0 0 1 0 29.118c0-1.18.955-2.136 2.132-2.136h6.315c-2.482-7.12-.887-15.364 4.786-21.044A20.09 20.09 0 0 1 27.543 0a20.09 20.09 0 0 1 14.313 5.938l1.607 1.61 1.607-1.61A20.09 20.09 0 0 1 59.382 0a20.09 20.09 0 0 1 14.31 5.938 20.155 20.155 0 0 1 5.93 14.334zM70.678 8.957A15.86 15.86 0 0 0 59.38 4.27a15.86 15.86 0 0 0-11.296 4.687l-3.115 3.12a2.128 2.128 0 0 1-3.016 0l-3.114-3.12A15.862 15.862 0 0 0 27.543 4.27a15.857 15.857 0 0 0-11.296 4.687c-5.074 5.083-6.015 12.76-2.822 18.806h14.81L33.54 16.48c.245-.52.74-.846 1.353-.817a1.422 1.422 0 0 1 1.27.938l7.89 21.887 6.492-18.32a1.42 1.42 0 0 1 2.633-.11l3.176 6.994h17.502c2.76-5.925 1.702-13.208-3.175-18.093zm-54.43 22.63 27.215 27.257 27.215-27.258a16.065 16.065 0 0 0 1.517-1.756h-16.46c-.556 0-1.362-.257-1.592-.766l-2.097-4.62-6.642 18.745a1.42 1.42 0 0 1-1.335.946h-.004a1.42 1.42 0 0 1-1.337-.94l-8.077-22.398-4.227 8.996c-.234.498-.436.747-.987.747H15.292c.3.36.62.71.955 1.046z" fill="#3172B9"/></svg>