<svg width="65" height="65" viewBox="0 0 65 65" fill="none" xmlns="http://www.w3.org/2000/svg"><path d="M63.13 51.506a6.393 6.393 0 0 1 0 9.03l-2.59 2.594A6.345 6.345 0 0 1 56.023 65a6.344 6.344 0 0 1-4.516-1.87l-20.52-20.517-2.86 2.862a6.343 6.343 0 0 1-1.85 5.026l-2.727 2.727a6.343 6.343 0 0 1-4.516 1.87 6.344 6.344 0 0 1-4.515-1.87L1.864 40.575a6.392 6.392 0 0 1 0-9.03L4.59 28.82a6.346 6.346 0 0 1 5.027-1.85L26.97 9.62a6.374 6.374 0 0 1 1.848-5.025l2.725-2.725A6.347 6.347 0 0 1 36.058 0c1.706 0 3.31.664 4.516 1.87l12.653 12.652a6.393 6.393 0 0 1 0 9.03l-2.725 2.726a6.346 6.346 0 0 1-5.027 1.85l-2.862 2.862L63.13 51.506zM31.165 35.784l4.62-4.62 3.46-3.46 5.154-5.153.4.4a1.68 1.68 0 0 0 2.377 0l2.725-2.724a1.68 1.68 0 0 0 0-2.376L37.246 5.197a1.676 1.676 0 0 0-1.188-.492c-.43 0-.86.164-1.188.492l-2.726 2.725a1.682 1.682 0 0 0 0 2.377l.4.4-21.85 21.846-.4-.4a1.675 1.675 0 0 0-1.188-.492c-.43 0-.86.164-1.188.492L5.193 34.87a1.68 1.68 0 0 0 0 2.376L17.846 49.9a1.68 1.68 0 0 0 2.377 0l2.725-2.725a1.68 1.68 0 0 0 0-2.377l-.4-.4 5.155-5.154 3.46-3.46zm28.64 19.05-20.52-20.517-4.97 4.97 20.52 20.516c.328.328.76.492 1.19.492.43 0 .86-.164 1.187-.492l2.594-2.593a1.68 1.68 0 0 0 0-2.376z" fill="#3172B9"/></svg>