<svg width="64" height="64" viewBox="0 0 64 64" fill="none" xmlns="http://www.w3.org/2000/svg"><path d="M63.81 15.073 53.332 48.146l.247.78a3.972 3.972 0 0 1-.263 3.05 3.97 3.97 0 0 1-1.747 1.728l-.009.033-2.366 7.47a4.007 4.007 0 0 1-5.02 2.606L32 59.957l-12.174 3.856a4.007 4.007 0 0 1-5.02-2.606L.188 15.074a3.974 3.974 0 0 1 .263-3.05 3.972 3.972 0 0 1 2.344-1.972L33.944.187a4.005 4.005 0 0 1 5.02 2.605l.076.242c.01.002.018.003.026.006l22.14 7.013a3.975 3.975 0 0 1 2.342 1.97c.492.95.585 2.032.262 3.05zM48.444 54.75l-12.028 3.81 8.562 2.71a1.335 1.335 0 0 0 1.675-.867l1.791-5.653zm2.593-5.018L36.421 3.598a1.335 1.335 0 0 0-1.672-.87L3.6 12.596a1.32 1.32 0 0 0-.78.657 1.325 1.325 0 0 0-.089 1.017L17.348 60.4c.222.7.973 1.09 1.674.87l12.541-3.973c.03-.01.057-.02.086-.028l18.523-5.867c.34-.107.616-.34.78-.657a1.32 1.32 0 0 0 .087-1.017v.002zm-2.54-16.847 4.95-15.62-11.002-3.484 6.052 19.105zM61.18 13.25a1.325 1.325 0 0 0-.78-.656L40.023 6.14l1.446 4.56c.087.01.175.03.262.057l12.518 3.965a2.65 2.65 0 0 1 1.561 1.313 2.65 2.65 0 0 1 .177 2.034l-6.092 19.227 2.038 6.434 9.335-29.463c.107-.34.076-.7-.088-1.017zM30.94 23.336a4.89 4.89 0 0 1 2.427 2.884 4.606 4.606 0 0 1-.513 3.885l-3.213 5.02a2.76 2.76 0 0 1-2.316 1.27c-.354 0-.708-.07-1.04-.205l-5.519-2.254a4.606 4.606 0 0 1-2.656-2.88 4.892 4.892 0 0 1 .322-3.756 4.89 4.89 0 0 1 2.884-2.427 4.95 4.95 0 0 1 3.262.104 4.946 4.946 0 0 1 2.607-1.964 4.897 4.897 0 0 1 3.755.323zm-.115 3.69a2.245 2.245 0 0 0-1.113-1.323 2.242 2.242 0 0 0-1.722-.148 2.243 2.243 0 0 0-1.514 1.63 1.335 1.335 0 0 1-2.178.69 2.245 2.245 0 0 0-2.177-.46 2.24 2.24 0 0 0-1.32 1.115 2.242 2.242 0 0 0-.148 1.722c.175.553.585.997 1.123 1.217l5.518 2.253a.08.08 0 0 0 .058.002.08.08 0 0 0 .046-.034l3.213-5.02c.313-.49.392-1.09.216-1.643v-.002zM44.172 40.93a2.647 2.647 0 0 1-.175 2.033 2.652 2.652 0 0 1-1.562 1.314L21.24 50.993a2.67 2.67 0 0 1-3.347-1.737L8.013 18.07a2.65 2.65 0 0 1 .175-2.034 2.65 2.65 0 0 1 1.561-1.313L30.944 8.01a2.67 2.67 0 0 1 3.348 1.736l9.88 31.186zm-2.542.805L31.75 10.55l-9.772 3.095-11.425 3.62 9.88 31.185 21.197-6.713z" fill="#3172B9"/></svg>